<svg xmlns="http://www.w3.org/2000/svg" version="1.1" xmlns:xlink="http://www.w3.org/1999/xlink" xmlns:svgjs="http://svgjs.dev/svgjs" viewBox="0 0 800 800"><defs><linearGradient x1="50%" y1="0%" x2="50%" y2="100%" id="ffflurry-grad" gradientTransform="rotate(270)"><stop stop-color="hsl(238, 82%, 13%)" stop-opacity="1" offset="0%"></stop><stop stop-color="hsl(1.4, 100%, 67%)" stop-opacity="1" offset="45%"></stop><stop stop-color="hsl(167, 52%, 78%)" stop-opacity="1" offset="100%"></stop></linearGradient></defs><rect width="100%" height="100%" fill="hsl(238, 82%, 13%)"></rect><g fill="url(#ffflurry-grad)"><rect width="304" height="3" x="407" y="353.5" rx="1.5" transform="rotate(45, 559, 355)" opacity="0.88"></rect><rect width="380" height="3" x="543" y="188.5" rx="1.5" transform="rotate(45, 733, 190)" opacity="0.38"></rect><rect width="326" height="3" x="306" y="487.5" rx="1.5" transform="rotate(45, 469, 489)" opacity="0.22"></rect><rect width="365" height="3" x="50.5" y="115.5" rx="1.5" transform="rotate(45, 233, 117)" opacity="0.20"></rect><rect width="460" height="3" x="336" y="469.5" rx="1.5" transform="rotate(45, 566, 471)" opacity="0.35"></rect><rect width="328" height="3" x="-111" y="34.5" rx="1.5" transform="rotate(45, 53, 36)" opacity="0.80"></rect><rect width="485" height="3" x="-112.5" y="100.5" rx="1.5" transform="rotate(45, 130, 102)" opacity="0.44"></rect><rect width="510" height="3" x="146" y="311.5" rx="1.5" transform="rotate(45, 401, 313)" opacity="0.84"></rect><rect width="155" height="3" x="662.5" y="767.5" rx="1.5" transform="rotate(45, 740, 769)" opacity="0.88"></rect><rect width="237" height="3" x="264.5" y="775.5" rx="1.5" transform="rotate(45, 383, 777)" opacity="0.52"></rect><rect width="472" height="3" x="-38" y="640.5" rx="1.5" transform="rotate(45, 198, 642)" opacity="0.76"></rect><rect width="418" height="3" x="471" y="65.5" rx="1.5" transform="rotate(45, 680, 67)" opacity="0.68"></rect><rect width="100" height="3" x="470" y="415.5" rx="1.5" transform="rotate(45, 520, 417)" opacity="0.08"></rect><rect width="81" height="3" x="-3.5" y="260.5" rx="1.5" transform="rotate(45, 37, 262)" opacity="0.20"></rect><rect width="57" height="3" x="345.5" y="591.5" rx="1.5" transform="rotate(45, 374, 593)" opacity="0.11"></rect><rect width="43" height="3" x="209.5" y="323.5" rx="1.5" transform="rotate(45, 231, 325)" opacity="0.79"></rect><rect width="115" height="3" x="219.5" y="431.5" rx="1.5" transform="rotate(45, 277, 433)" opacity="0.63"></rect><rect width="557" height="3" x="-165.5" y="601.5" rx="1.5" transform="rotate(45, 113, 603)" opacity="0.75"></rect><rect width="367" height="3" x="-152.5" y="106.5" rx="1.5" transform="rotate(45, 31, 108)" opacity="0.40"></rect><rect width="253" height="3" x="18.5" y="455.5" rx="1.5" transform="rotate(45, 145, 457)" opacity="0.53"></rect><rect width="336" height="3" x="439" y="258.5" rx="1.5" transform="rotate(45, 607, 260)" opacity="0.78"></rect><rect width="374" height="3" x="268" y="651.5" rx="1.5" transform="rotate(45, 455, 653)" opacity="0.38"></rect><rect width="596" height="3" x="-236" y="166.5" rx="1.5" transform="rotate(45, 62, 168)" opacity="0.35"></rect><rect width="446" height="3" x="184" y="34.5" rx="1.5" transform="rotate(45, 407, 36)" opacity="0.63"></rect><rect width="140" height="3" x="243" y="344.5" rx="1.5" transform="rotate(45, 313, 346)" opacity="0.18"></rect><rect width="224" height="3" x="651" y="62.5" rx="1.5" transform="rotate(45, 763, 64)" opacity="0.28"></rect><rect width="430" height="3" x="254" y="279.5" rx="1.5" transform="rotate(45, 469, 281)" opacity="0.96"></rect><rect width="409" height="3" x="286.5" y="59.5" rx="1.5" transform="rotate(45, 491, 61)" opacity="0.11"></rect><rect width="66" height="3" x="715" y="296.5" rx="1.5" transform="rotate(45, 748, 298)" opacity="0.87"></rect><rect width="233" height="3" x="-9.5" y="316.5" rx="1.5" transform="rotate(45, 107, 318)" opacity="0.96"></rect><rect width="197" height="3" x="530.5" y="771.5" rx="1.5" transform="rotate(45, 629, 773)" opacity="0.38"></rect><rect width="339" height="3" x="204.5" y="399.5" rx="1.5" transform="rotate(45, 374, 401)" opacity="0.97"></rect><rect width="556" height="3" x="21" y="645.5" rx="1.5" transform="rotate(45, 299, 647)" opacity="0.31"></rect><rect width="38" height="3" x="139" y="395.5" rx="1.5" transform="rotate(45, 158, 397)" opacity="0.74"></rect><rect width="113" height="3" x="215.5" y="532.5" rx="1.5" transform="rotate(45, 272, 534)" opacity="0.75"></rect><rect width="122" height="3" x="71" y="739.5" rx="1.5" transform="rotate(45, 132, 741)" opacity="0.93"></rect><rect width="91" height="3" x="104.5" y="28.5" rx="1.5" transform="rotate(45, 150, 30)" opacity="0.45"></rect><rect width="644" height="3" x="-276" y="747.5" rx="1.5" transform="rotate(45, 46, 749)" opacity="0.76"></rect><rect width="414" height="3" x="473" y="689.5" rx="1.5" transform="rotate(45, 680, 691)" opacity="1.00"></rect><rect width="315" height="3" x="602.5" y="437.5" rx="1.5" transform="rotate(45, 760, 439)" opacity="0.83"></rect><rect width="389" height="3" x="377.5" y="617.5" rx="1.5" transform="rotate(45, 572, 619)" opacity="0.08"></rect><rect width="390" height="3" x="200" y="715.5" rx="1.5" transform="rotate(45, 395, 717)" opacity="0.25"></rect><rect width="447" height="3" x="-94.5" y="212.5" rx="1.5" transform="rotate(45, 129, 214)" opacity="0.50"></rect><rect width="503" height="3" x="-29.5" y="49.5" rx="1.5" transform="rotate(45, 222, 51)" opacity="0.26"></rect><rect width="102" height="3" x="-2" y="518.5" rx="1.5" transform="rotate(45, 49, 520)" opacity="0.72"></rect><rect width="67" height="3" x="448.5" y="557.5" rx="1.5" transform="rotate(45, 482, 559)" opacity="0.71"></rect><rect width="33" height="3" x="733.5" y="631.5" rx="1.5" transform="rotate(45, 750, 633)" opacity="0.90"></rect><rect width="251" height="3" x="281.5" y="457.5" rx="1.5" transform="rotate(45, 407, 459)" opacity="0.23"></rect><rect width="257" height="3" x="79.5" y="377.5" rx="1.5" transform="rotate(45, 208, 379)" opacity="0.60"></rect><rect width="500" height="3" x="-60" y="164.5" rx="1.5" transform="rotate(45, 190, 166)" opacity="0.52"></rect><rect width="271" height="3" x="323.5" y="392.5" rx="1.5" transform="rotate(45, 459, 394)" opacity="0.54"></rect><rect width="38" height="3" x="339" y="501.5" rx="1.5" transform="rotate(45, 358, 503)" opacity="0.79"></rect><rect width="425" height="3" x="276.5" y="191.5" rx="1.5" transform="rotate(45, 489, 193)" opacity="0.86"></rect><rect width="94" height="3" x="627" y="464.5" rx="1.5" transform="rotate(45, 674, 466)" opacity="0.41"></rect><rect width="364" height="3" x="415" y="703.5" rx="1.5" transform="rotate(45, 597, 705)" opacity="0.13"></rect><rect width="197" height="3" x="542.5" y="319.5" rx="1.5" transform="rotate(45, 641, 321)" opacity="0.54"></rect><rect width="675" height="3" x="170.5" y="744.5" rx="1.5" transform="rotate(45, 508, 746)" opacity="0.56"></rect><rect width="256" height="3" x="145" y="197.5" rx="1.5" transform="rotate(45, 273, 199)" opacity="0.56"></rect><rect width="409" height="3" x="148.5" y="70.5" rx="1.5" transform="rotate(45, 353, 72)" opacity="0.72"></rect><rect width="186" height="3" x="110" y="257.5" rx="1.5" transform="rotate(45, 203, 259)" opacity="0.94"></rect><rect width="168" height="3" x="-37" y="400.5" rx="1.5" transform="rotate(45, 47, 402)" opacity="0.44"></rect><rect width="65" height="3" x="260.5" y="742.5" rx="1.5" transform="rotate(45, 293, 744)" opacity="0.26"></rect><rect width="61" height="3" x="577.5" y="533.5" rx="1.5" transform="rotate(45, 608, 535)" opacity="0.09"></rect><rect width="441" height="3" x="-42.5" y="527.5" rx="1.5" transform="rotate(45, 178, 529)" opacity="0.38"></rect><rect width="392" height="3" x="136" y="251.5" rx="1.5" transform="rotate(45, 332, 253)" opacity="0.58"></rect><rect width="279" height="3" x="386.5" y="308.5" rx="1.5" transform="rotate(45, 526, 310)" opacity="0.91"></rect><rect width="224" height="3" x="658" y="705.5" rx="1.5" transform="rotate(45, 770, 707)" opacity="0.90"></rect><rect width="54" height="3" x="16" y="646.5" rx="1.5" transform="rotate(45, 43, 648)" opacity="0.30"></rect><rect width="465" height="3" x="170.5" y="153.5" rx="1.5" transform="rotate(45, 403, 155)" opacity="0.96"></rect><rect width="619" height="3" x="299.5" y="171.5" rx="1.5" transform="rotate(45, 609, 173)" opacity="0.73"></rect><rect width="226" height="3" x="101" y="748.5" rx="1.5" transform="rotate(45, 214, 750)" opacity="0.42"></rect><rect width="157" height="3" x="502.5" y="65.5" rx="1.5" transform="rotate(45, 581, 67)" opacity="0.29"></rect><rect width="441" height="3" x="497.5" y="562.5" rx="1.5" transform="rotate(45, 718, 564)" opacity="0.35"></rect><rect width="441" height="3" x="90.5" y="128.5" rx="1.5" transform="rotate(45, 311, 130)" opacity="0.56"></rect><rect width="289" height="3" x="147.5" y="29.5" rx="1.5" transform="rotate(45, 292, 31)" opacity="0.56"></rect><rect width="67" height="3" x="652.5" y="370.5" rx="1.5" transform="rotate(45, 686, 372)" opacity="0.49"></rect><rect width="217" height="3" x="496.5" y="400.5" rx="1.5" transform="rotate(45, 605, 402)" opacity="0.76"></rect></g></svg>